Normalized EMG Linear Envelopes
nRows=205
nColumns=4

endheader
time	 med_gas_r	  soleus_r	 tib_ant_r	
4.18723	  0.122562	  0.125903	  0.033794	
4.24973	  0.121858	  0.132202	  0.034060	
4.31222	  0.124822	  0.134669	  0.034219	
4.37472	  0.131933	  0.134141	  0.033852	
4.43722	  0.140712	  0.131754	  0.033357	
4.49971	  0.147838	  0.126246	  0.033419	
4.56221	  0.147272	  0.119332	  0.033947	
4.6247	  0.136461	  0.115860	  0.034396	
4.6872	  0.129235	  0.118308	  0.034301	
4.7497	  0.134425	  0.125980	  0.033930	
4.81219	  0.150977	  0.133718	  0.033544	
4.87469	  0.162050	  0.137386	  0.033325	
4.93718	  0.159671	  0.140893	  0.033051	
4.99968	  0.153111	  0.142023	  0.032384	
5.06218	  0.147219	  0.138917	  0.031992	
5.12467	  0.139918	  0.139133	  0.032138	
5.18717	  0.136161	  0.145800	  0.032154	
5.24966	  0.139528	  0.150931	  0.032369	
5.31216	  0.144707	  0.145881	  0.033019	
5.37466	  0.146291	  0.134542	  0.033678	
5.43715	  0.150415	  0.126546	  0.033743	
5.49965	  0.157148	  0.126008	  0.033508	
5.56214	  0.159371	  0.130748	  0.033546	
5.62464	  0.156953	  0.135219	  0.033912	
5.68714	  0.157309	  0.138907	  0.033956	
5.74963	  0.156728	  0.140451	  0.033627	
5.81213	  0.158890	  0.141248	  0.034093	
5.87462	  0.167999	  0.140143	  0.038005	
5.93712	  0.175903	  0.136814	  0.048391	
5.99962	  0.180029	  0.132355	  0.066656	
6.06211	  0.179038	  0.129543	  0.090041	
6.12461	  0.179047	  0.131270	  0.115428	
6.1871	  0.181165	  0.135423	  0.146684	
6.2496	  0.183685	  0.137707	  0.182622	
6.3121	  0.185867	  0.136220	  0.215363	
6.37459	  0.186647	  0.130939	  0.244272	
6.43709	  0.185511	  0.126847	  0.277047	
6.49958	  0.186605	  0.124275	  0.303086	
6.56208	  0.189452	  0.122982	  0.310449	
6.62458	  0.187824	  0.122420	  0.314881	
6.68707	  0.187730	  0.122243	  0.330054	
6.74957	  0.190046	  0.123885	  0.353487	
6.81206	  0.196153	  0.127439	  0.376536	
6.87456	  0.195353	  0.130024	  0.385988	
6.93706	  0.188358	  0.132708	  0.380260	
6.99955	  0.181469	  0.137498	  0.369983	
7.06205	  0.175897	  0.142143	  0.360221	
7.12454	  0.175396	  0.145758	  0.351287	
7.18704	  0.177119	  0.143065	  0.346990	
7.24954	  0.190211	  0.135616	  0.349491	
7.31203	  0.216088	  0.129614	  0.341399	
7.37453	  0.261672	  0.141096	  0.318312	
7.43702	  0.315845	  0.183527	  0.284677	
7.49952	  0.354257	  0.254391	  0.250164	
7.56202	  0.375168	  0.337682	  0.226557	
7.62451	  0.378038	  0.392495	  0.213840	
7.68701	  0.352317	  0.396612	  0.202646	
7.7495	  0.321619	  0.392575	  0.195570	
7.812	  0.313179	  0.422913	  0.190128	
7.8745	  0.312283	  0.481684	  0.189163	
7.93699	  0.309995	  0.541878	  0.193795	
7.99949	  0.327773	  0.593224	  0.200980	
8.06198	  0.350018	  0.666522	  0.207477	
8.12448	  0.343988	  0.738078	  0.208072	
8.18698	  0.332693	  0.791215	  0.207285	
8.24947	  0.327541	  0.848453	  0.205373	
8.31197	  0.304777	  0.925074	  0.203920	
8.37446	  0.276209	  0.988255	  0.201102	
8.43696	  0.268549	  0.997443	  0.196978	
8.49946	  0.285509	  0.958735	  0.192348	
8.56195	  0.310807	  0.873501	  0.183338	
8.62445	  0.309868	  0.807162	  0.174721	
8.68694	  0.279366	  0.795545	  0.172321	
8.74944	  0.247532	  0.827640	  0.176573	
8.81194	  0.217663	  0.849228	  0.184982	
8.87443	  0.196675	  0.853513	  0.189992	
8.93693	  0.193217	  0.868741	  0.192069	
8.99942	  0.204555	  0.891468	  0.193520	
9.06192	  0.218815	  0.898083	  0.194284	
9.12442	  0.230590	  0.891352	  0.192610	
9.18691	  0.232687	  0.859154	  0.192600	
9.24941	  0.226026	  0.826831	  0.195835	
9.3119	  0.219950	  0.787765	  0.200656	
9.3744	  0.216328	  0.754025	  0.204579	
9.4369	  0.216507	  0.751815	  0.206144	
9.49939	  0.216190	  0.773027	  0.207348	
9.56189	  0.209904	  0.801003	  0.209266	
9.62438	  0.205477	  0.814061	  0.210799	
9.68688	  0.208452	  0.826567	  0.208902	
9.74938	  0.220647	  0.829771	  0.204010	
9.81187	  0.239760	  0.829374	  0.198245	
9.87437	  0.265273	  0.840598	  0.194548	
9.93686	  0.301699	  0.840143	  0.194584	
9.99936	  0.327710	  0.810241	  0.195568	
10.0619	  0.321344	  0.768173	  0.194094	
10.1244	  0.312016	  0.725774	  0.188701	
10.1868	  0.311540	  0.674099	  0.182637	
10.2493	  0.299951	  0.634063	  0.182450	
10.3118	  0.277854	  0.590848	  0.189989	
10.3743	  0.275650	  0.545262	  0.198627	
10.4368	  0.290838	  0.548531	  0.207349	
10.4993	  0.292020	  0.598315	  0.213302	
10.5618	  0.268955	  0.618620	  0.213840	
10.6243	  0.256922	  0.591329	  0.213135	
10.6868	  0.272362	  0.567780	  0.213179	
10.7493	  0.309750	  0.604387	  0.209779	
10.8118	  0.331537	  0.671825	  0.206106	
10.8743	  0.334523	  0.683791	  0.203071	
10.9368	  0.337896	  0.624826	  0.200478	
10.9993	  0.323263	  0.568992	  0.202739	
11.0618	  0.297017	  0.560551	  0.209518	
11.1243	  0.288396	  0.560725	  0.217092	
11.1868	  0.308558	  0.548204	  0.227289	
11.2493	  0.333203	  0.548503	  0.240466	
11.3118	  0.335638	  0.540493	  0.254998	
11.3743	  0.342770	  0.511319	  0.272508	
11.4368	  0.356894	  0.478313	  0.288112	
11.4993	  0.348829	  0.418369	  0.287737	
11.5618	  0.333270	  0.361105	  0.273087	
11.6243	  0.322288	  0.329319	  0.256337	
11.6868	  0.300703	  0.335307	  0.243240	
11.7492	  0.286473	  0.353935	  0.234393	
11.8117	  0.296812	  0.350346	  0.228913	
11.8742	  0.310972	  0.350455	  0.224804	
11.9367	  0.292157	  0.362524	  0.217344	
11.9992	  0.272038	  0.376364	  0.212448	
12.0617	  0.277473	  0.366666	  0.210831	
12.1242	  0.290389	  0.358648	  0.209007	
12.1867	  0.275805	  0.367240	  0.207694	
12.2492	  0.256630	  0.400679	  0.205250	
12.3117	  0.252850	  0.428789	  0.202010	
12.3742	  0.267481	  0.413208	  0.198720	
12.4367	  0.281564	  0.353254	  0.197210	
12.4992	  0.275383	  0.297606	  0.197157	
12.5617	  0.278177	  0.268389	  0.194900	
12.6242	  0.296690	  0.273658	  0.188525	
12.6867	  0.301898	  0.309915	  0.182034	
12.7492	  0.300280	  0.364720	  0.181965	
12.8117	  0.312138	  0.413844	  0.188738	
12.8742	  0.320008	  0.424980	  0.196027	
12.9367	  0.288796	  0.417456	  0.196124	
12.9992	  0.241191	  0.390605	  0.187718	
13.0617	  0.202596	  0.330554	  0.171768	
13.1242	  0.173139	  0.249799	  0.150472	
13.1867	  0.150855	  0.190383	  0.132189	
13.2492	  0.138119	  0.162335	  0.118426	
13.3116	  0.131289	  0.151499	  0.108159	
13.3741	  0.126852	  0.143841	  0.099646	
13.4366	  0.126570	  0.137219	  0.092472	
13.4991	  0.129769	  0.134529	  0.088490	
13.5616	  0.134086	  0.134198	  0.086804	
13.6241	  0.139529	  0.134521	  0.087651	
13.6866	  0.147295	  0.135723	  0.086391	
13.7491	  0.154897	  0.131122	  0.079021	
13.8116	  0.157785	  0.122182	  0.071704	
13.8741	  0.154402	  0.116086	  0.068423	
13.9366	  0.147579	  0.115955	  0.066674	
13.9991	  0.141830	  0.122527	  0.066655	
14.0616	  0.144711	  0.133605	  0.067476	
14.1241	  0.162189	  0.142678	  0.066193	
14.1866	  0.194389	  0.143394	  0.066584	
14.2491	  0.231219	  0.139012	  0.069679	
14.3116	  0.250449	  0.137735	  0.071842	
14.3741	  0.232875	  0.137888	  0.073425	
14.4366	  0.209713	  0.132782	  0.075838	
14.4991	  0.207893	  0.122561	  0.075255	
14.5616	  0.229292	  0.114808	  0.074697	
14.6241	  0.242294	  0.112098	  0.073990	
14.6866	  0.233612	  0.114115	  0.069971	
14.7491	  0.236942	  0.120632	  0.066267	
14.8116	  0.259743	  0.129302	  0.065915	
14.874	  0.282684	  0.133246	  0.066426	
14.9365	  0.284152	  0.132520	  0.067742	
14.999	  0.290827	  0.132373	  0.067466	
15.0615	  0.297369	  0.133666	  0.064137	
15.124	  0.275421	  0.134220	  0.060009	
15.1865	  0.254693	  0.131803	  0.057362	
15.249	  0.255189	  0.128973	  0.057739	
15.3115	  0.267477	  0.125396	  0.061590	
15.374	  0.267187	  0.122380	  0.064337	
15.4365	  0.273125	  0.120577	  0.064720	
15.499	  0.283955	  0.119925	  0.064757	
15.5615	  0.271435	  0.119821	  0.063202	
15.624	  0.251905	  0.120878	  0.059255	
15.6865	  0.254881	  0.121746	  0.056307	
15.749	  0.267933	  0.119615	  0.055952	
15.8115	  0.258240	  0.116464	  0.055981	
15.874	  0.246852	  0.116988	  0.052307	
15.9365	  0.249269	  0.121884	  0.048568	
15.999	  0.248713	  0.125738	  0.048050	
16.0615	  0.223760	  0.125029	  0.050690	
16.124	  0.187634	  0.121395	  0.055354	
16.1865	  0.162064	  0.117566	  0.056201	
16.249	  0.156156	  0.116122	  0.052627	
16.3115	  0.166353	  0.118423	  0.048583	
16.374	  0.190956	  0.122330	  0.046020	
16.4364	  0.224606	  0.123398	  0.044653	
16.4989	  0.240804	  0.122909	  0.044234	
16.5614	  0.227283	  0.123579	  0.043565	
16.6239	  0.210960	  0.123604	  0.042741	
16.6864	  0.209591	  0.120292	  0.041931	
16.7489	  0.234090	  0.116198	  0.041968	
16.8114	  0.267145	  0.113231	  0.042423	
16.8739	  0.275663	  0.111633	  0.043034	
16.9364	  0.269642	  0.114071	  0.043391	
